<svg xmlns="http://www.w3.org/2000/svg" width="8" height="8" viewBox="0 0 8 8">
  <path fill="#7f8fa4" fill-rule="evenodd" d="m366.968421 28 2.863157 2.8186522c.11228.1105358.168422.2625205.168422.4559582 0 .193438-.056142.3592394-.168422.4974092-.308774.3039739-.617543.3039739-.926317 0l-2.863156-2.8186523-2.905263 2.8186523c-.308773.3039739-.617542.3039739-.926316 0-.140351-.1381698-.210526-.2901545-.210526-.4559585 0-.1934377.070175-.3592391.210526-.4974089l2.863158-2.8186522-2.863158-2.8186515c-.140351-.1381699-.210526-.3039717-.210526-.4974104 0-.1658043.070175-.3177878.210526-.4559576.308774-.303974.617543-.303974.926316 0l2.905263 2.818651 2.863156-2.818651c.308774-.303974.617543-.303974.926317 0 .11228.1381698.168422.3039717.168422.4974081 0 .1934386-.056142.3454245-.168422.4559599z" transform="translate(-362 -24)"/>
</svg>
