<svg height="15" viewBox="0 0 14 15" width="14" xmlns="http://www.w3.org/2000/svg"><g fill="none" fill-rule="evenodd"><g fill="#7f8fa4" fill-rule="nonzero"><path d="m12.9457 11.25c-.7591138 0-1.3772021-.700625-1.3772021-1.5625v-2.8125c0-2.275625-1.2339731-4.344375-3.08658541-5.203125-.20658032-.979375-.9695503-1.671875-1.87134225-1.671875-.88801994 0-1.6658637.706875-1.8729949 1.671875-1.85151055.85875-3.08493278 2.926875-3.08493278 5.203125v2.8125c0 .861875-.61808832 1.5625-1.37720213 1.5625-.15204312 0-.27544043.14-.27544043.3125s.12339731.3125.27544043.3125h12.67025957c.1520432 0 .2754405-.14.2754405-.3125s-.1233973-.3125-.2754405-.3125z"/><path d="m8.2632128 12.5h-3.30528512c-.15204312 0-.27544043.14-.27544043.3125 0 1.20625.86488294 2.1875 1.92808299 2.1875 1.06320004 0 1.92808298-.98125 1.92808298-2.1875 0-.1725-.12339731-.3125-.27544042-.3125z"/></g><path d="m0 0h13.221141v15h-13.221141z"/></g></svg>