<svg xmlns="http://www.w3.org/2000/svg" width="183" height="34" viewBox="0 0 183 34">
  <g fill="none">
    <path fill="#191e3c" d="M39 0v20h3.8120805v-8.0706922h6.3087249v-3.53460971h-6.3087249v-4.59499264h8.1879195v-3.79970545zM64.9723502 18.7552301h-3.3732719l-.1658986-1.3870293c-.6912442.9246862-1.8801843 1.6317992-3.7603686 1.6317992-3.0691245 0-4.6728111-2.1757322-4.6728111-5.6025105v-7.3974895h3.7603687v7.1799163c0 1.3870293.718894 2.3389122 1.9907834 2.3389122 1.2165898 0 1.9631336-.7343097 2.4884792-1.4958159v-8.0230126h3.7603687v12.7552301zM79 11.6416507v7.3583493h-3.7260274v-7.1403242c0-1.4171636-.7945205-2.3982768-2.109589-2.3982768-1.1780822 0-1.9452055.7358349-2.4383562 1.498923v8.039678h-3.7260274v-12.7544722h3.3424658l.1643835 1.41716358c.630137-.92660696 1.8630137-1.66244189 3.6438356-1.66244189 3.150685-.02725315 4.8493151 2.18025166 4.8493151 5.64140121M118 9.65199161h-.291667c-1.458333 0-2.412878.76310269-3.102272 1.68972749v7.6582809h-3.606061v-12.75471698h3.208333l.212122 1.68972746c.609848-1.03563941 1.829545-1.93501048 3.579545-1.93501048zM139.883212 0l-9.868613 13.5465116-9.897811-13.5465116h-.116788v19.7383721h4.116788v-8.3139535l5.781022 8.5755814h.233577l5.751825-8.5755814v8.3139535h4.116788v-19.7383721zM182.798956 7.4661191l-1.464752 2.7597536c-.775457-.60369611-1.866841-1.14989734-3.216711-1.14989734-1.148825 0-1.751958.3449692-1.751958 1.06365504 0 .6899384.516972.9486653 2.412533 1.4086242 2.843342.6899384 4.221932 1.9548255 4.221932 3.9958932 0 2.6735113-2.240209 4.4558522-5.859008 4.4558522-2.039164 0-4.020888-.6324435-5.140992-1.6098563l1.493473-2.788501c.890339.7761807 2.182767 1.3511294 3.67624 1.3511294 1.206266 0 1.924282-.3737167 1.924282-1.1498974 0-.7186858-.488251-1.0924024-2.26893-1.5236139-2.958224-.7186859-4.336814-1.7823409-4.336814-3.8809035 0-2.6735113 2.096605-4.3983573 5.657963-4.3983573 1.83812.02874743 3.618799.57494867 4.652742 1.4661191M84.7494737 12.9651163c0 2.2383721 1.1768421 3.6337209 2.8736842 3.6337209 1.2863158 0 2.08-.7267442 2.6273684-1.6860465v-3.8662791c-.5473684-.9593023-1.3410526-1.71511625-2.6273684-1.71511625-1.6968421-.02906977-2.8736842 1.36627905-2.8736842 3.63372095zm9.2505263 6.7732558h-3.3389474l-.1915789-1.5116279c-.6568421.9593023-1.8884211 1.7732558-3.7494737 1.7732558-3.4210526 0-5.72-2.994186-5.72-7.0639535 0-4.06976743 2.2989474-7.09302324 5.72-7.09302324 1.8336842 0 2.9284211.75581395 3.5305263 1.5116279v-7.35465116h3.7494737zM99.9229075 11.6344969h5.2400885c-.057269-1.5236139-.944934-2.64476384-2.548459-2.64476384-1.574889-.02874743-2.605726 1.09240244-2.6916295 2.64476384m9.0770925 1.2073922v1.2361396h-9.0770925c.0859035 1.724846 1.1453745 2.7022588 3.0638765 2.7022588 1.317181 0 2.348018-.5749487 2.949339-1.3798768l2.662996 2.1848049c-1.403084 1.6098563-3.178414 2.4147844-5.698238 2.4147844-4.209251 0-6.900881-2.9322382-6.900881-6.9568789 0-4.02464061 2.7488987-7.0431211 6.757709-7.0431211 4.209251.02874743 6.242291 3.16221766 6.242291 6.8418891M145.776842 13.0431211c0 2.2135524 1.176842 3.5934292 2.873684 3.5934292 1.286316 0 2.08-.7186858 2.627369-1.6673511v-3.8234086c-.547369-.9486653-1.341053-1.69609861-2.627369-1.69609861-1.696842-.02874743-2.873684 1.35112941-2.873684 3.59342911m5.692632-5.2320328l.191579-1.52361397h3.338947v13.45379877h-3.338947l-.191579-1.4948665c-.656842.9486653-1.888421 1.7535934-3.749474 1.7535934-3.421053 0-5.72-2.9609856-5.72-6.9856263 0-4.02464064 2.298947-7.0143737 5.72-7.0143737 1.861053.02874743 3.092632.80492813 3.749474 1.8110883M160.722105 11.1304348v3.8260869c.547369.9855073 1.368421 1.710145 2.654737 1.710145 1.696842 0 2.873684-1.3913044 2.873684-3.6231884 0-2.2608696-1.176842-3.65217395-2.873684-3.65217395-1.286316.02898551-2.107368.78260865-2.654737 1.73913045m9.277895 1.942029c0 4.057971-2.298947 7.0434782-5.72 7.0434782-1.833684 0-2.928421-.7536232-3.557895-1.5072463v7.3913043h-3.722105v-19.73913043h3.338947l.164211 1.53623188c.68421-.98550725 1.915789-1.79710145 3.776842-1.79710145 3.421053 0 5.72 2.98550725 5.72 7.0724638"/>
    <path fill="#28cc8b" d="m9.59303566 4.98430618 2.10615814 4.01569382h10.2177129c3.4438531 0 5.1230873-3.38913166 5.1230873-3.38913166l2.960006-5.6105793h-19.1261925c-.99615588-.0284801-2.81769803 2.05056705-1.28077184 4.98401714z"/>
    <path fill="#17a4ea" d="m15.2130983 21.3870968-8.32704272-16.30730054c-1.58742956-3.08828522.38989498-4.53140916 1.55957991-5.07979626h-1.16968493c-1.86592597 0-3.75970158.9524618-4.5116419 2.4533107-.05569928.11544991-2.11657274 4.09847198-2.11657274 4.09847198-1.30893314 2.56876061-.44559426 4.96434632.91903816 7.61969442l10.16511912 19.8285229s3.1470094-6.1765705 3.5926037-7.0424448c.8911885-1.7606112.9468878-3.49236-.1113986-5.5704584z"/>
    <path fill="#ffcc69" d="m23 11h-11l4.2625 8c1.65-.1924399 3.1625-1.2646048 3.9325-2.7216495 0 .0274914 2.805-5.2783505 2.805-5.2783505z"/>
  </g>
</svg>
