<svg height="26" viewBox="0 0 26 26" width="26" xmlns="http://www.w3.org/2000/svg"><path d="m123 10c-1.79428 0-3.482739.3385395-5.065431 1.015625-1.582688.6770855-2.962232 1.603836-4.13867 2.7802742-1.176439 1.1764383-2.103187 2.555982-2.780274 4.1386703-.677087 1.5826915-1.015625 3.271151-1.015625 5.0654305s.338538 3.482739 1.015625 5.0654305c.677087 1.5826882 1.603835 2.962232 2.780274 4.1386702 1.176438 1.1764389 2.555982 2.1031875 4.13867 2.7802743 1.582692.6770868 3.271151 1.015625 5.065431 1.015625 1.794279 0 3.482739-.3385382 5.06543-1.015625 1.582689-.6770868 2.962232-1.6038354 4.138671-2.7802743 1.176438-1.1764382 2.103188-2.555982 2.780274-4.1386702.677085-1.5826915 1.015625-3.271151 1.015625-5.0654305s-.33854-3.482739-1.015625-5.0654305c-.677086-1.5826883-1.603836-2.962232-2.780274-4.1386703-1.176439-1.1764382-2.555982-2.1031887-4.138671-2.7802742-1.582691-.6770855-3.271151-1.015625-5.06543-1.015625zm5.306639 13.7109375-4.595701 4.5957015c-.152344.169273-.342771.2539095-.571289.2539095-.228517 0-.418944-.0846365-.571288-.2539095-.169273-.1523437-.253909-.342771-.253909-.5712882 0-.2285173.084636-.4189445.253909-.5712883l3.351563-3.3515625h-8.607424c-.220054 0-.410482-.0804017-.571288-.2412117-.16081-.1608068-.241212-.351234-.241212-.5712883s.080402-.4104815.241212-.5712882c.160806-.16081.351234-.2412118.571288-.2412118h8.607424l-3.351563-3.3515625c-.169273-.1523438-.253909-.342771-.253909-.5712883 0-.2285172.084636-.4189445.253909-.5712882.152344-.169273.342771-.2539095.571288-.2539095.228518 0 .418945.0846365.571289.2539095l4.595701 4.5957015c.101566.1015625.169273.2158195.203125.3427743.033855.1269515.033855.2496714 0 .3681632.033855.1184918.033855.2412118 0 .3681633-.033852.1269547-.101559.2412117-.203125.3427742z" fill="#fff" fill-rule="evenodd" transform="translate(-110 -10)"/></svg>