<svg xmlns="http://www.w3.org/2000/svg" width="13" height="12" viewBox="0 0 13 12">
  <path fill="#17a4ea" fill-rule="evenodd" d="m27.0302727 23.047894-4.4189438 4.5957015c-.1464844.169273-.3295875.2539095-.5493156.2539095s-.4028313-.0846365-.5493156-.2539095c-.1627625-.1523437-.2441438-.342771-.2441438-.5712882 0-.2285173.0813813-.4189445.2441438-.5712883l3.2226562-3.3515625h-8.2763687c-.2115907 0-.3946938-.0804017-.5493157-.2412117-.154625-.1608068-.2319343-.351234-.2319343-.5712883 0-.2200542.0773093-.4104815.2319343-.5712882.1546219-.16081.337725-.2412118.5493157-.2412118h8.2763687l-3.2226562-3.3515625c-.1627625-.1523437-.2441438-.342771-.2441438-.5712882 0-.2285173.0813813-.4189445.2441438-.5712883.1464843-.169273.3295875-.2539095.5493156-.2539095s.4028312.0846365.5493156.2539095l4.4189438 4.5957015c.0976593.1015625.1627625.2158195.1953125.3427743.0325531.1269515.0325531.2496715 0 .3681632.0325531.1184918.0325531.2412118 0 .3681633-.03255.1269547-.0976532.2412117-.1953125.3427742z" transform="matrix(-1 0 0 1 27.928 -16)"/>
</svg>
