<svg height="98" viewBox="0 0 80 98" width="80" xmlns="http://www.w3.org/2000/svg"><g fill="none" fill-rule="evenodd" transform="translate(1 2)"><path d="m36.4503 50.0495-35.45 20.779v-29.109l35.45-20.797z" fill="#ced0da"/><g stroke="#7f8fa4" stroke-linejoin="round"><g stroke-width="2"><path d="m36.4503 48.0495v2l-1.726 1.012"/><path d="m31.1691 53.1452-26.666 15.631" stroke-dasharray="4.121 4.121"/><g transform="translate(0 40)"><path d="m2.7257 29.819-1.726 1.011v-2"/><path d="m1.0001 25.2428v-19.729" stroke-dasharray="3.587 3.587"/><path d="m1.0001 3.7204v-2l1.725-1.012"/></g><path d="m6.2804 38.6213 26.667-15.645" stroke-dasharray="4.122 4.122"/><path d="m34.7257 21.9338 1.725-1.012v2"/><path d="m36.4503 26.5119v19.743" stroke-dasharray="3.59 3.59"/></g><path d="m20.0656 20.7799-20.065 20.94v29.11l40.13 23.17v-29.11zm55.2646 52.4414v-29.11l-20.066-44.11m-35.1986 20.7786 35.198-20.779m-15.1326 65.0749 35.199-20.778m-35.199 49.7018 35.199-20.372" stroke-linecap="round" stroke-width="4" transform="translate(1)"/></g></g></svg>