<svg height="98" viewBox="0 0 80 98" width="80" xmlns="http://www.w3.org/2000/svg"><g fill="none" fill-rule="evenodd" stroke="#7f8fa4" stroke-linejoin="round"><g stroke-width="2" transform="translate(2 2)"><path d="m54.2352 2.0227-1.418 1.41"/><path d="m49.577 6.6521-11.34 11.269" stroke-dasharray="4.568 4.568"/><path d="m36.6171 19.5305-1.418 1.41v2"/><path d="m35.1986 26.5276v19.729" stroke-dasharray="3.587 3.587"/><path d="m35.1986 48.0505v2l1.721 1.019"/><path d="m40.1639 52.9909 30.823 18.25" stroke-dasharray="3.771 3.771"/><path d="m72.6088 72.2009 1.721 1.02"/><path d="m1.0389 69.9353 1.731-1.002"/><path d="m6.1854 66.9587 25.613-14.813" stroke-dasharray="3.945 3.945"/><path d="m33.5062 51.1579 1.731-1.002"/></g><g stroke-linecap="round" stroke-width="4" transform="translate(2 1.9991)"><path d="m20.0658 20.7799 35.198-20.779"/><path d="m40.1312 65.0758 35.199-20.965"/><path d="m40.1312 93.9996 35.199-20.372"/><path d="m20.0658 20.7799-20.066 20.94v29.11l40.131 23.17v-29.11z"/><path d="m75.33 73.2213v-29.11l-20.066-44.11"/></g></g></svg>