<svg xmlns="http://www.w3.org/2000/svg" width="22" height="22" viewBox="0 0 22 22">
  <g fill="none" fill-rule="evenodd">
    <g fill="#7f8fa4" fill-rule="nonzero" transform="translate(.5 .492)">
      <path d="m14.9147727 9.22131148c-3.0545454 0-5.5397727 2.44364752-5.5397727 5.44895682 0 3.0044709 2.4852273 5.4489567 5.5397727 5.4489567 3.0545455 0 5.5397728-2.4444858 5.5397728-5.4489567 0-3.0053093-2.4852273-5.44895682-5.5397728-5.44895682zm3.4917614 4.10767512-3.4909091 3.6524776c-.16875.175205-.4440341.1701751-.6068182.0142512l-2.49375-2.3816133c-.1678977-.1592772-.1730113-.4266952-.0085227-.5918406.1627841-.1659836.4329545-.1701751.6025568-.0092213l2.1826705 2.0831781 3.1934659-3.3423062c.1602272-.1684985.4321022-.1768815.6017045-.0176044.1713068.1592772.1798296.4241804.0196023.5926789z"/>
      <path d="m8.52272727 14.6702683c0-3.3255403 2.64034093-6.04834207 5.96590913-6.26546204v-3.79415052c0-.11149404-.0451705-.21795827-.1244319-.29592027l-4.2613636-4.19150522c-.0801136-.07880029-.18920454-.12323025-.30170454-.12323025h-9.375c-.23522727 0-.42613636.18777943-.42613636.41915052v17.60432188c0 .2313711.19090909.4191506.42613636.4191506h9.38778409c-.80710227-1.0520679-1.29119318-2.355626-1.29119318-3.7723547zm.85227273-13.83196726 4.2613636 4.19150522h-4.2613636zm-6.39204545 4.19150522h3.83522727c.23522727 0 .42613636.18777943.42613636.41915052s-.19090909.41915052-.42613636.41915052h-3.83522727c-.23522728 0-.42613637-.18777943-.42613637-.41915052s.19090909-.41915052.42613637-.41915052zm0 2.51490313h6.81818181c.23522724 0 .42613634.18777943.42613634.41915052s-.1909091.41915052-.42613634.41915052h-6.81818181c-.23522728 0-.42613637-.18777943-.42613637-.41915052s.19090909-.41915052.42613637-.41915052zm4.26136363 5.86810731h-4.26136363c-.23522728 0-.42613637-.1877794-.42613637-.4191505s.19090909-.4191506.42613637-.4191506h4.26136363c.23522727 0 .42613637.1877795.42613637.4191506s-.1909091.4191505-.42613637.4191505zm.85227273-2.5149031h-5.11363636c-.23522728 0-.42613637-.1877795-.42613637-.4191506 0-.231371.19090909-.4191505.42613637-.4191505h5.11363636c.23522727 0 .42613636.1877795.42613636.4191505 0 .2313711-.19090909.4191506-.42613636.4191506z"/>
    </g>
    <path d="m.5.491803h20.454546v20.119225h-20.454546z"/>
  </g>
</svg>
