<svg height="21" viewBox="0 0 17 21" width="17" xmlns="http://www.w3.org/2000/svg"><path d="m15.555184 5.26773901-5.2274619-5.14176575c-.0818969-.08055433-.1934161-.12597326-.3084202-.12597326h-9.58368008c-.24046324 0-.43562182.19195926-.43562182.42848048v19.71010202c0 .2365212.19515858.4284805.43562182.4284805h14.81114188c.2404633 0 .4356218-.1919593.4356218-.4284805v-14.56833627c0-.11397581-.0461759-.22280985-.1272015-.30250722zm-11.63458762.7309877h3.92059639c.24046324 0 .43562182.19195925.43562182.42848048 0 .23652122-.19515858.42848048-.43562182.42848048h-3.92059639c-.24046324 0-.43562182-.19195926-.43562182-.42848048 0-.23652123.19515858-.42848048.43562182-.42848048zm7.84119282 11.14049249h-7.84119282c-.24046324 0-.43562182-.1919593-.43562182-.4284805s.19515858-.4284805.43562182-.4284805h7.84119282c.2404632 0 .4356218.1919593.4356218.4284805s-.1951586.4284805-.4356218.4284805zm0-2.5708829h-7.84119282c-.24046324 0-.43562182-.1919593-.43562182-.4284805s.19515858-.4284805.43562182-.4284805h7.84119282c.2404632 0 .4356218.1919593.4356218.4284805s-.1951586.4284805-.4356218.4284805zm0-2.5708829h-7.84119282c-.24046324 0-.43562182-.1919592-.43562182-.4284805 0-.2365212.19515858-.4284804.43562182-.4284804h7.84119282c.2404632 0 .4356218.1919592.4356218.4284804 0 .2365213-.1951586.4284805-.4356218.4284805zm0-2.57088286h-7.84119282c-.24046324 0-.43562182-.19195925-.43562182-.42848048 0-.23652122.19515858-.42848048.43562182-.42848048h7.84119282c.2404632 0 .4356218.19195926.4356218.42848048 0 .23652123-.1951586.42848048-.4356218.42848048zm-2.17810915-3.42784383v-5.14176575l5.22746185 5.14176575z" fill="#17a4ea" transform="translate(.814 .18)"/></svg>