<svg height="32" viewBox="0 0 27 32" width="27" xmlns="http://www.w3.org/2000/svg"><path d="m585.804685 500.785716c.328128.333332.609376.785708.843751 1.35714.234376.571432.351564 1.095236.351564 1.571428v20.57143c0 .476193-.16406.880951-.492187 1.214286-.328128.333335-.72656.5-1.195315.5h-23.624998c-.468752 0-.867186-.166665-1.195313-.5-.328126-.333335-.492187-.738093-.492187-1.214286v-28.57143c0-.476192.164061-.880948.492187-1.214284.328127-.333336.726561-.5 1.195313-.5h15.749998c.468755 0 .984375.119048 1.546878.357144.5625.238096 1.007811.523808 1.335935.85714zm-7.804684-4.357144v6.714284h6.609373c-.117187-.34524-.246093-.589284-.386717-.73214l-5.501955-5.589288c-.140624-.142856-.380855-.273808-.720701-.392856zm6.749999 27.285714v-18.285714h-7.312502c-.468752 0-.867183-.166664-1.195311-.5-.328127-.333336-.492187-.738092-.492187-1.214288v-7.428568h-13.5v27.42857z" fill="#7f8fa4" fill-rule="evenodd" transform="translate(-560 -494)"/></svg>