<svg xmlns="http://www.w3.org/2000/svg" width="90" height="90" viewBox="0 0 90 90">
  <mask id="foundation-type-concrete-poles-a" fill="#fff">
    <path fill-rule="evenodd" d="m0 .173789h89.233936v61.6161h-89.233936z"/>
  </mask>
  <mask id="foundation-type-concrete-poles-b" fill="#fff">
    <path fill-rule="evenodd" d="m.18981838.30599h88.85421642v25.0370182h-88.85421642z"/>
  </mask>
  <mask id="foundation-type-concrete-poles-c" fill="#fff">
    <path fill-rule="evenodd" d="m0 89.60401h89.23401v-89.23401h-89.23401z"/>
  </mask>
  <g fill="#29cc8b" fill-rule="evenodd">
    <path d="m85.198346 57.754299h-81.16246v-16.70735h9.85902v7.96351c0 1.11407.90317 2.01761 2.01798 2.01761h10.76182c1.11444 0 2.01798-.90354 2.01798-2.01761v-7.96351h8.52554v7.96351c0 1.11407.90354 2.01761 2.01798 2.01761h10.76182c1.11444 0 2.01761-.90354 2.01761-2.01761v-7.96351h8.52554v7.96351c0 1.11407.90391 2.01761 2.01798 2.01761h10.76182c1.11444 0 2.01835-.90354 2.01835-2.01761v-7.96351h9.85902zm-67.26785-10.76182h6.72623v-15.92665h-6.72623zm10.76219-9.98112h8.52554v-5.94553h-8.52554zm12.56113 9.98112h6.72623v-15.92665h-6.72623zm10.76182-9.98112h8.52554v-5.94553h-8.52554zm12.5615 9.98112h6.72623v-15.92665h-6.72623zm22.63919-9.98112h-11.877v-34.81959c0-1.11444-.90391-2.01798-2.01835-2.01798-1.11407 0-2.01761.90354-2.01761 2.01798v24.8381h-53.37287v-24.8381c0-1.11444-.90354-2.01798-2.01761-2.01798-1.11481 0-2.01798.90354-2.01798 2.01798v34.81959h-11.877c-1.11444 0-2.01798.90317-2.01798 2.01798v20.74294c0 1.11444.90354 2.01761 2.01798 2.01761h85.19842c1.11444 0 2.01761-.90317 2.01761-2.01761v-20.74294c0-1.11481-.90317-2.01798-2.01761-2.01798z" mask="url(#foundation-type-concrete-poles-a)" transform="translate(0 27.814)"/>
    <path d="m44.617116 4.575457 41.51326 20.55757c.28786.14245.59274.2099812.89392.2099812.74259 0 1.45743-.4120012 1.80967-1.1227712.49469-.99863.08584-2.20927-.91316-2.70396l-42.40829-21.00083c-.56425-.27935-1.22655-.27935-1.79117 0l-42.40866 21.00083c-.99863.49469-1.40748 1.70533-.91279 2.70396.49506.999 1.70496 1.40711 2.70396.91279z" mask="url(#foundation-type-concrete-poles-b)" transform="translate(0 .064)"/>
    <path d="m39.57853 44.4999h10.07658v-12.47603h-10.07658zm-2.01761-16.51199c-1.11444 0-2.01798.90354-2.01798 2.01798v16.51162c0 1.11444.90354 2.01798 2.01798 2.01798h14.11217c1.11444 0 2.01798-.90354 2.01798-2.01798v-16.51162c0-1.11444-.90354-2.01798-2.01798-2.01798z" mask="url(#foundation-type-concrete-poles-c)"/>
  </g>
</svg>
