<svg xmlns="http://www.w3.org/2000/svg" width="90" height="90" viewBox="0 0 90 90">
  <mask id="foundation-type-none-a" fill="#fff">
    <path fill-rule="evenodd" d="m.000037.173789h89.2339742v61.6161008h-89.2339742z"/>
  </mask>
  <mask id="foundation-type-none-b" fill="#fff">
    <path fill-rule="evenodd" d="m.18995231.30599h88.85442549v25.0370185h-88.85442549z"/>
  </mask>
  <mask id="foundation-type-none-c" fill="#fff">
    <path fill-rule="evenodd" d="m0 89.6040112h89.2340112v-89.23401119h-89.2340112z"/>
  </mask>
  <g fill="#7f8fa4" fill-rule="evenodd">
    <path d="m85.1984581 57.7542997h-81.16283105v-16.7073502h9.85939015v7.9635101c0 1.11407.90354 2.0176101 2.01798 2.0176101h57.4080907c1.1148101 0 2.0179801-.9035401 2.0179801-2.0176101v-7.9635101h9.8593901zm-67.2674809-10.7618201h53.3725007v-15.9266502h-53.3725007zm69.2854609-9.9811201h-11.8773701v-34.81959047c0-1.11444002-.90317-2.01798003-2.0179801-2.01798003-1.11444 0-2.01761.90354001-2.01761 2.01798003v24.83810027h-53.3725007v-24.83810027c0-1.11444002-.90354-2.01798003-2.01798-2.01798003s-2.01798.90354001-2.01798 2.01798003v34.81959047h-11.87700017c-1.11444002 0-2.01798003.90317-2.01798003 2.01798v20.7429403c0 1.11444.90354001 2.01761 2.01798003 2.01761h85.19842107c1.11444 0 2.0176101-.90317 2.0176101-2.01761v-20.7429403c0-1.11481-.9031701-2.01798-2.0176101-2.01798z" mask="url(#foundation-type-none-a)" transform="translate(0 27.814)"/>
    <path d="m44.6170796 4.57545706 41.5132605 20.55757024c.28786.14245.59311.2099812.89392.2099812.74296 0 1.4578-.4120012 1.81004-1.1227712.4946901-.99863.08584-2.20927-.91279-2.70396l-42.4086605-21.00083029c-.56462-.27935001-1.22692-.27935001-1.79117 0l-42.40866058 21.00083029c-.99900002.49469-1.40748002 1.70533-.91316001 2.70396.49506.999 1.70607002 1.40711 2.70396003.91279z" mask="url(#foundation-type-none-b)" transform="translate(0 .064)"/>
    <path d="M39.5789005 44.4999006h10.0765801v-12.4760302h-10.0765801zm-2.01798-16.5119902c-1.11444 0-2.01761.90354-2.01761 2.01798v16.5116202c0 1.11444.90317 2.01798 2.01761 2.01798h14.1125402c1.11407 0 2.01761-.90354 2.01761-2.01798v-16.5116202c0-1.11444-.90354-2.01798-2.01761-2.01798zM27.2278934 68.8610339h4.25907c1.11444 0 2.01798-.90354 2.01798-2.01798 0-1.1144401-.90354-2.0176101-2.01798-2.0176101h-4.25907c-1.1144401 0-2.0179801.90317-2.0179801 2.0176101 0 1.11444.90354 2.01798 2.0179801 2.01798M42.4875075 68.8610339h4.2590701c1.11444 0 2.01798-.90354 2.01798-2.01798 0-1.1144401-.90354-2.0176101-2.01798-2.0176101h-4.2590701c-1.11444 0-2.01798.90317-2.01798 2.0176101 0 1.11444.90354 2.01798 2.01798 2.01798M57.7472697 68.8610339h4.2590701c1.11444 0 2.01761-.90354 2.01761-2.01798 0-1.1144401-.90317-2.0176101-2.01761-2.0176101h-4.2590701c-1.11444 0-2.01798.90317-2.01798 2.0176101 0 1.11444.90354 2.01798 2.01798 2.01798" mask="url(#foundation-type-none-c)"/>
  </g>
</svg>
