<svg height="90" viewBox="0 0 90 90" width="90" xmlns="http://www.w3.org/2000/svg" xmlns:xlink="http://www.w3.org/1999/xlink"><mask id="a" fill="#fff"><path d="m0 .173789h89.23401v61.6161h-89.23401z" fill="#fff" fill-rule="evenodd"/></mask><mask id="b" fill="#fff"><path d="m.18977566.30599h88.85438524v25.036827h-88.85438524z" fill="#fff" fill-rule="evenodd"/></mask><mask id="c" fill="#fff"><path d="m0 89.60401h89.23401v-89.23401h-89.23401z" fill="#fff" fill-rule="evenodd"/></mask><g fill="#7f8fa4" fill-rule="evenodd"><path d="m85.198531 57.754299h-81.16246v-16.70735h15.04827v5.94553h-3.17127c-1.11444 0-2.01798.90317-2.01798 2.01798 0 1.11407.90354 2.01761 2.01798 2.01761h10.37813c1.11481 0 2.01798-.90354 2.01798-2.01761 0-1.11481-.90317-2.01798-2.01798-2.01798h-3.1709v-5.94553h19.47902v5.94553h-3.17127c-1.11444 0-2.01798.90317-2.01798 2.01798 0 1.11407.90354 2.01761 2.01798 2.01761h10.37813c1.11444 0 2.01798-.90354 2.01798-2.01761 0-1.11481-.90354-2.01798-2.01798-2.01798h-3.17127v-5.94553h19.47939v5.94553h-3.17127c-1.11444 0-2.01798.90317-2.01798 2.01798 0 1.11407.90354 2.01761 2.01798 2.01761h10.37813c1.11444 0 2.01798-.90354 2.01798-2.01761 0-1.11481-.90354-2.01798-2.01798-2.01798h-3.17127v-5.94553h15.04864zm-38.56362-20.74294h19.47902v-5.94553h-19.47902zm-23.51461 0h19.47902v-5.94553h-19.47902zm64.09584 0h-17.06625v-5.94553h3.17127c1.11444 0 2.01798-.90354 2.01798-2.01798v-26.85608c0-1.11444-.90354-2.01798-2.01798-2.01798s-2.01798.90354-2.01798 2.01798v24.8381h-53.3725v-24.8381c0-1.11444-.90317-2.01798-2.01761-2.01798s-2.01798.90354-2.01798 2.01798v26.85608c0 1.11444.90354 2.01798 2.01798 2.01798h3.17127v5.94553h-17.06625c-1.11444 0-2.01835.90317-2.01835 2.01798v20.74294c0 1.11444.90391 2.01761 2.01835 2.01761h85.19805c1.11481 0 2.01798-.90317 2.01798-2.01761v-20.74294c0-1.11481-.90317-2.01798-2.01798-2.01798z" mask="url(#a)" transform="translate(0 27.81401)"/><path d="m44.616931 4.575457 41.51326 20.55757c.28786.14245.59348.20979.89429.20979.74259 0 1.4578-.41181 1.8093-1.12258.49506-.99863.08658-2.20927-.91242-2.70396l-42.40866-21.00083c-.56388-.27935-1.22692-.27935-1.79117 0l-42.40866 21.00083c-.999.49469-1.40785 1.70533-.91279 2.70396.49432.99863 1.70496 1.40637 2.70396.91279z" mask="url(#b)" transform="translate(0 .06401)"/><path d="m39.57927 44.4999h10.07584v-12.47603h-10.07584zm-2.01835-16.51199c-1.11407 0-2.01761.90354-2.01761 2.01798v16.51162c0 1.11444.90354 2.01798 2.01761 2.01798h14.11217c1.11444 0 2.01761-.90354 2.01761-2.01798v-16.51162c0-1.11444-.90317-2.01798-2.01761-2.01798z" mask="url(#c)"/></g></svg>