<svg xmlns="http://www.w3.org/2000/svg" width="90" height="90" viewBox="0 0 90 90" fill="#7f8fa4">
  <mask id="foundation-type-wooden-poles-2-a" fill="#fff">
    <path fill-rule="evenodd" d="m.000037.173937h89.233973v61.616063h-89.233973z" />
  </mask>
  <mask id="foundation-type-wooden-poles-2-b" fill="#fff">
    <path fill-rule="evenodd" d="m.18992938.30599h88.85392092v25.0370182h-88.85392092z" />
  </mask>
  <mask id="foundation-type-wooden-poles-2-c" fill="#fff">
    <path fill-rule="evenodd" d="m0 89.60401h89.23401v-89.23401h-89.23401z" />
  </mask>
  <g fill="" fill-rule="evenodd">
    <path
      d="m85.198457 57.754447h-81.16246v-16.70735h9.85902v.1924c0 1.11481.90317 2.01798 2.01761 2.01798h3.17164v3.73478h-3.17127c-1.11481 0-2.01798.90317-2.01798 2.01798 0 1.11444.90317 2.01761 2.01798 2.01761h10.37813c1.11481 0 2.01798-.90317 2.01798-2.01761 0-1.11481-.90317-2.01798-2.01798-2.01798h-3.1709v-3.73478h3.55422c1.11481 0 2.01798-.90317 2.01798-2.01798v-.1924h8.52591v-.00888c0 1.11444.90354 2.01798 2.01761 2.01798h3.3633v3.93606h-3.17127c-1.11444 0-2.01798.90317-2.01798 2.01798 0 1.11444.90354 2.01761 2.01798 2.01761h10.3785c1.11407 0 2.01761-.90317 2.01761-2.01761 0-1.11481-.90354-2.01798-2.01761-2.01798h-3.17164v-3.93606h3.36293c1.11481 0 2.01798-.90354 2.01798-2.01798v.00888h8.52554v.01184c0 1.11444.90354 2.01761 2.01798 2.01761h3.55496v3.91571h-3.17127c-1.11444 0-2.01798.90317-2.01798 2.01798 0 1.11444.90354 2.01761 2.01798 2.01761h10.37813c1.11444 0 2.01798-.90317 2.01798-2.01761 0-1.11481-.90354-2.01798-2.01798-2.01798h-3.17127v-3.91571h3.17127c1.11444 0 2.01798-.90317 2.01798-2.01761v-.01184h9.85939zm-67.26785-18.53256h6.72623v-8.15628h-6.72623zm10.76182-2.21075h8.52591v-5.94553h-8.52591zm12.5615 2.21075h6.72623v-8.15628h-6.72623zm10.76182-2.21075h8.52554v-5.94553h-8.52554zm12.5615 2.21075h6.72623v-8.15628h-6.72623zm22.63919-2.21075h-11.87737v-34.81922c0-1.11444-.90354-2.01798-2.01798-2.01798-1.11407 0-2.01798.90354-2.01798 2.01798v24.8381h-53.3725v-24.8381c0-1.11444-.90354-2.01798-2.01798-2.01798s-2.01761.90354-2.01761 2.01798v34.81922h-11.877c-1.11444 0-2.01798.90354-2.01798 2.01798v20.74294c0 1.11481.90354 2.01798 2.01798 2.01798h85.19842c1.11444 0 2.01761-.90317 2.01761-2.01798v-20.74294c0-1.11444-.90317-2.01798-2.01761-2.01798z"
      mask="url(#foundation-type-wooden-poles-2-a)" transform="translate(0 27.814)" />
    <path
      d="m3.103967 25.133027 41.51289-20.55757 41.51326 20.55757c.28786.14245.59311.2099812.89429.2099812.74259 0 1.45743-.4120012 1.8093-1.1227712.49469-.99863.08621-2.20927-.91279-2.70396l-42.40829-21.00083c-.56425-.27935-1.22655-.27935-1.79117 0l-42.40866 21.00083c-.99863.49469-1.40748 1.70533-.91279 2.70396.49469.999 1.70496 1.40711 2.70396.91279"
      mask="url(#foundation-type-wooden-poles-2-b)" transform="translate(0 .064)" />
    <path
      d="m39.5789 44.4999h10.07658v-12.47603h-10.07658zm-2.01798-16.51199c-1.11444 0-2.01798.90354-2.01798 2.01798v16.51162c0 1.11444.90354 2.01798 2.01798 2.01798h14.11254c1.11407 0 2.01761-.90354 2.01761-2.01798v-16.51162c0-1.11444-.90354-2.01798-2.01761-2.01798z"
      mask="url(#foundation-type-wooden-poles-2-c)" />
  </g>
</svg>