<svg xmlns="http://www.w3.org/2000/svg" width="24" height="24" viewBox="0 0 24 24">
  <g fill="none" fill-rule="evenodd">
    <g fill="#7f8fa4" fill-rule="nonzero" transform="translate(.545 1.451)">
      <path d="M18.5950413 5.27946755v-3.90770221c0-.25240482-.2082644-.45725511-.464876-.45725511h-4.394938zM21.5358471 10.3970668l-10.3788223-9.32068826-10.37882232 9.32068826c-.18873967.1700989-.48347107.1582103-.65640496-.0301788-.17386364-.1865601-.15991735-.47554536.02975207-.64472976l10.69214871-9.6023574c.1766529-.16003929.4490703-.16003929.6266529 0l10.6921488 9.6023574c.1896694.1691844.2036157.45908416.0297521.64472976-.1720042.18656-.4667356.2021067-.656405.0301788z"/>
      <path d="m11.1570248 16.003929c0-3.2776047 2.711157-5.9443165 6.0433884-5.9443165.8237604 0 1.6084711.1636973 2.3243802.4590842v-.68954076l-8.3677686-7.51361604-8.3677686 7.51361604v10.74732426c0 .2524048.20826446.4572551.46487603.4572551h10.74049587c-1.7014463-1.0526013-2.8376033-2.9108861-2.8376033-5.0298063zm-.9297521-9.14510228v-.91451023c0-.25240482.2082645-.45725512.4648761-.45725512h.929752c.2566116 0 .4648761.2048503.4648761.45725512v.91451023c0 .25240482-.2082645.45725511-.4648761.45725511h-.929752c-.2566116 0-.4648761-.20485029-.4648761-.45725511z"/>
      <path d="m17.2004132 10.9741227c-2.819938 0-5.1136363 2.2579258-5.1136363 5.0298063 0 2.7737095 2.2936983 5.0298063 5.1136363 5.0298063s5.1136364-2.2560968 5.1136364-5.0298063c0-2.7718805-2.2936984-5.0298063-5.1136364-5.0298063zm.4648761 7.773337c0 .2524048-.2082645.4572551-.4648761.4572551-.2566115 0-.464876-.2048503-.464876-.4572551v-3.6580409c0-.2524048.2082645-.4572551.464876-.4572551.2566116 0 .4648761.2048503.4648761.4572551zm-.4648761-5.0298063c-.2575413 0-.464876-.2048503-.464876-.4572551s.2073347-.4572551.464876-.4572551c.2556818 0 .4648761.2048503.4648761.4572551s-.2091943.4572551-.4648761.4572551z"/>
    </g>
    <path d="m.545455.536513h22.31405v21.948246h-22.31405z"/>
  </g>
</svg>
