<svg height="16" viewBox="0 0 16 16" width="16" xmlns="http://www.w3.org/2000/svg"><path d="m25.6242259 25.5278123-3.8170578-3.817058c.2900717-.4746612.5142159-.9888726.6724348-1.5426455.1582211-.5537729.2373306-1.1273141.2373306-1.7206417 0-.857031-.1746997-1.6777881-.5241035-2.4623006-.3494038-.7845103-.8207639-1.4701247-1.4140915-2.0568591-.5933276-.5867367-1.278942-1.0547979-2.0568591-1.4042017-.7779193-.349406-1.6019753-.5241057-2.4721882-.5241057-.857031 0-1.6678983.1648121-2.4326334.4944385-.7647329.3296265-1.43057.774616-1.9975275 1.3349821-.5669579.5603638-1.0119474 1.2229043-1.3349816 1.9876372-.323034.7647351-.4845487 1.5756047-.4845487 2.4326334 0 .8702152.1714033 1.6975655.514215 2.4820758.3428117.7845125.8108747 1.4701247 1.4042028 2.0568613.5933274.5867344 1.2789418 1.0547979 2.0568611 1.4042017.7779171.3494061 1.6019731.5241057 2.472186.5241057.5801434 0 1.1339073-.0758151 1.6613118-.227443.5274023-.151628 1.0284273-.3592891 1.5030885-.6229903l3.8368351 3.8368352c.1845917.197776.4120303.2966624.6823246.2966624.2702944 0 .4977329-.0988864.6823246-.2966624l.9493201-.9493202c.1845895-.184591.257108-.3889565.217551-.6131024-.0395547-.2241462-.1582189-.4285117-.3559947-.6131027zm-13.7058081-7.2781211c0-.5933276.1120714-1.1536846.3362172-1.6810869.2241464-.5274023.533991-.9855783.9295427-1.3745368s.857022-.6988031 1.3844243-.9295427c.5274046-.2307397 1.0877616-.3461072 1.6810892-.3461072.6065118 0 1.1833496.1252573 1.7305316.3757743.5471796.2505148 1.0284273.5834333 1.4437563.9987624.4153314.4153314.7449511.896579.9888749 1.4437587.2439238.5471796.3658845 1.1174265.3658845 1.7107541 0 .6065118-.1120709 1.173462-.3362174 1.7008643-.2241464.5274024-.533991.9855783-.9295427 1.3745368s-.857022.6988031-1.3844243.9295427c-.5274023.2307374-1.0877594.346105-1.6810892.346105-.5933276 0-1.1635723-.1252551-1.7107542-.3757721-.5471797-.2505148-1.0284273-.5834333-1.4437564-.9987624-.4153291-.4153313-.7482476-.896579-.9987646-1.4437586-.2505157-.5471797-.3757719-1.1240176-.3757719-1.7305316z" fill="#7f8fa4" fill-rule="evenodd" transform="translate(-10 -12)"/></svg>