<svg height="176" viewBox="0 0 243 176" width="243" xmlns="http://www.w3.org/2000/svg"><g fill="none" fill-rule="evenodd" transform="translate(.036441 .5)"><g transform="translate(.963559)"><g transform="translate(19)"><path d="m189.15348 21.2074116c.447533-3.159757.082763-6.576953-1.642999-10.1688397-2.654547-5.51654963-7.914597-9.58040784-13.98695-10.37111328-7.375104-.95620193-14.023733 2.49164157-17.695959 8.07561566-.93185 1.41897912-2.887509 1.63964112-4.28835.68037445-2.041488-1.4036554-4.499856-2.23420259-7.169729-2.23726734-3.273737 0-6.682347 1.26880641-8.947602 3.63172851-3.853078 4.0117574-4.217848 7.6312269-3.834686 10.6009695.171656 1.3423604-.579341 2.6142315-1.762546 3.2731527-4.904475 2.7276273-8.153689 8.0541624-7.798115 14.146885.475121 8.1736876 7.74907 14.3154462 15.936478 14.3154462h45.630009c7.549827 0 14.388504-5.2591106 15.58397-12.7125821 1.131094-7.0734425-2.62696-13.3469853-8.401979-16.1359076-1.164813-.5639139-1.802395-1.8143318-1.621542-3.098462z" fill="#dbe5ec"/><g fill="#e0e9ef"><path d="m38.9544313 42.6292324c.2596054-1.8329137.0480092-3.8151629-.953072-5.8987467-1.5398512-3.2000434-4.5911039-5.5574087-8.1135581-6.0160816-4.278155-.5546742-8.1348956 1.4453529-10.2650825 4.684508-.5405483.8231223-1.6749884.951124-2.4875889.394672-1.1842274-.8142333-2.610279-1.2960176-4.1590209-1.2977954-1.8990314 0-3.87629999.73601-5.19033012 2.1066953-2.23509591 2.3271427-2.4466921 4.4267267-2.22442719 6.1494168.09957468.7786772-.33606454 1.516465-1.02241857 1.8986924-2.84499082 1.5822437-4.72979723 4.6720634-4.5235354 8.2063336.27560849 4.7413976 4.49508549 8.3041127 9.24444203 8.3041127h26.46908325c4.3795078 0 8.3464918-3.0507081 9.0399583-7.3743223.656126-4.1031668-1.5238482-7.7423273-4.8738249-9.3601271-.6756853-.3271155-1.0455341-1.0524587-.940625-1.7973577z"/><path d="m151.18134 146.457246c.401069-2.82306.07417-5.876127-1.472416-9.08527-2.378942-4.928718-7.092872-8.55954-12.53477-9.26599-6.609391-.854311-12.567733 2.226138-15.858694 7.215096-.835102 1.267775-2.587717 1.464924-3.843117.607875-1.829532-1.254085-4.032663-1.996131-6.425339-1.998869-2.933845 0-5.98856 1.133605-8.018627 3.244739-3.4530359 3.584274-3.7799344 6.81806-3.4365537 9.471353.1538346 1.199322-.5191916 2.335665-1.5795512 2.924373-4.395273 2.436977-7.3071414 7.195928-6.9884841 12.639424.4257921 7.302717 6.9445314 12.790023 14.28189 12.790023h40.892521c6.765974 0 12.894632-4.698711 13.96598-11.357957 1.01366-6.319712-2.354218-11.924759-7.529652-14.4165-1.043877-.503825-1.615263-1.621001-1.453187-2.768297z"/></g></g><path d="m57.0401608 88.4054054c.625005.6358986 1.160715 1.4988979 1.607145 2.5890207s.669645 2.0893856.669645 2.9978187v39.2441892c0 .908435-.312495 1.680593-.9375 2.316497-.625005.635905-1.3839225.953852-2.27679.953852h-44.999997c-.8928615 0-1.65178275-.317947-2.2767855-.953852-.62500313-.635904-.9375-1.408062-.9375-2.316497v-54.5058171c0-.9084332.31249687-1.6805876.9375-2.3164938.62500275-.6359063 1.383924-.9538518 2.2767855-.9538518h29.999997c.8928675 0 1.875.2271083 2.946435.6813249 1.0714275.4542165 1.91964.9992703 2.5446375 1.6351689zm-14.866065-8.3121388v12.808863h12.5892825c-.223215-.6586155-.46875-1.1241791-.736605-1.396706l-10.479915-10.6627042c-.267855-.2725269-.7254375-.5223445-1.3727625-.7494528zm12.8571375 52.0530514v-34.88372h-13.9285725c-.89286 0-1.6517775-.3179455-2.2767825-.9538518-.625005-.6359062-.9375-1.4080606-.9375-2.3165014v-14.1715051h-25.7142855v52.3255783zm-17.2098225-20.201217c.7366125.59048 1.674105 1.226378 2.8125 1.907703 1.3169775-.158973 2.622765-.238463 3.917415-.238463 3.281265 0 5.25669.556409 5.926335 1.669241.35715.499642.37947 1.090115.0669675 1.77144 0 .022709-.01116.045418-.03348.068128-.02232.022717-.0446475.045426-.0669675.068135v.034064c-.1339275.863015-.9263325 1.294514-2.37723 1.294514-1.071435 0-2.3549025-.2271-3.8504475-.681325-1.495545-.454216-2.94642-1.056043-4.3526775-1.805504-4.933065.545062-9.3080175 1.487551-13.125 2.827492-3.4152 5.950249-6.1160625 8.925328-8.1026775 8.925328-.3348225 0-.647325-.07949-.9375-.238463l-.8035725-.408798c-.02232-.022709-.0892875-.079483-.200895-.170327-.223215-.227109-.290175-.635899-.200895-1.226379.200895-.908433.8258925-1.947445 1.875-3.11705 1.049115-1.169613 2.5223175-2.265398 4.419645-3.287385.3125025-.204399.5691975-.136264.7700925.204399.04464.045418.06696.090837.06696.136263 1.1607225-1.930428 2.35491-4.167409 3.5825925-6.711026 1.517865-3.088679 2.678565-6.063758 3.482145-8.925328-.5357175-1.862293-.87612-3.673459-1.0212075-5.4335519-.1450875-1.760093-.0725475-3.2078874.217635-4.3434288.245535-.9084331.7142775-1.3626497 1.40625-1.3626497h.703125.03348c.5133975 0 .90402.1703274 1.171875.5109975.40179.4769258.50223 1.2490803.3013425 2.3164938-.0446475.1362634-.0892875.2271083-.133935.2725269.0223275.0681355.0334875.1589803.0334875.2725345v1.0219796c-.0446475 2.7934351-.200895 4.9736501-.46875 6.5406991 1.2276825 3.724585 2.8571325 6.427137 4.8883875 8.10774zm-19.28571 14.001177c1.1607225-.545054 2.689725-2.339188 4.5870525-5.382448-1.138395.908441-2.114955 1.862277-2.9296875 2.861555s-1.3671825 1.839568-1.657365 2.520893zm13.325895-31.3408363c-.33483.9538518-.35715 2.4527497-.0669675 4.4967242.02232-.1589727.1004475-.6586079.234375-1.4989055 0-.0681355.0781275-.5564084.234375-1.4648492.02232-.0908372.0669675-.181682.1339275-.2725269-.02232-.0227093-.03348-.0454186-.03348-.0681279-.02232-.0454262-.03348-.0794902-.03348-.1021995-.0223275-.4996428-.167415-.9084331-.43527-1.2263862 0 .0227169-.01116.0454262-.03348.0681355zm-4.15179 22.5177083c3.01341-1.226387 6.1830225-2.146159 9.5089275-2.759356-.04464-.022709-.1897275-.130586-.4352625-.323623-.2455425-.193044-.42411-.34634-.5357175-.459894-1.69644-1.52163-3.113835-3.520155-4.25223-5.995645-.602685 1.953138-1.5290175 4.190126-2.77902 6.711034-.669645 1.271805-1.171875 2.214294-1.5066975 2.827484zm21.6294675-.545054c-.5357175-.545062-2.0982-.817588-4.6875-.817588 1.6964325.635906 3.0803475.953851 4.1517825.953851.3125025 0 .51339-.011354.6026775-.034064 0-.022709-.02232-.056781-.06696-.102199z" fill="#dbe5ec" transform="matrix(.96592583 -.25881905 .25881905 .96592583 -26.285572 12.308311)"/><path d="m231.263403 88.4054054c.625005.6358986 1.160715 1.4988979 1.607145 2.5890207s.669645 2.0893856.669645 2.9978187v39.2441892c0 .908435-.312495 1.680593-.9375 2.316497-.625005.635905-1.383922.953852-2.27679.953852h-44.999997c-.892861 0-1.651783-.317947-2.276785-.953852-.625003-.635904-.9375-1.408062-.9375-2.316497v-54.5058171c0-.9084332.312497-1.6805876.9375-2.3164938.625002-.6359063 1.383924-.9538518 2.276785-.9538518h29.999997c.892868 0 1.875.2271083 2.946435.6813249 1.071428.4542165 1.91964.9992703 2.544638 1.6351689zm-14.866065-8.3121388v12.808863h12.589283c-.223215-.6586155-.46875-1.1241791-.736605-1.396706l-10.479915-10.6627042c-.267855-.2725269-.725438-.5223445-1.372763-.7494528zm12.857138 52.0530514v-34.88372h-13.928573c-.89286 0-1.651777-.3179455-2.276782-.9538518-.625005-.6359062-.9375-1.4080606-.9375-2.3165014v-14.1715051h-25.714286v52.3255783zm-29.296875-30.523259v3.645079h-3.013388l3.31473 14.920966c.111608.454216.189728.976561.234375 1.567041l.06696.715389h.133935l.133928-.715389c.02232-.136264.06138-.380404.117187-.732421.0558-.352017.106028-.630221.150668-.83462l4.821427-18.566045h3.816968l4.821427 18.566045c.04464.204399.100448.48828.167408.851652.066967.363379.111607.601835.133927.715389 0 .045426.011168.119231.033488.221431.022322.102199.03906.193044.05022.272527.01116.07949.01674.153303.01674.221431h.133927l.066968-.715389c.04464-.59048.122767-1.112825.234375-1.567041l3.31473-14.920966h-3.013388v-3.645079h10.044638v3.645079h-2.34375l-5.491073 22.517716h-5.323657l-4.285718-16.522078c-.06696-.204399-.128347-.499635-.184147-.885717-.055808-.386088-.094868-.613189-.117188-.681324l-.100447-.817589h-.133928c0 .18169-.02232.454217-.066967.817589-.06696.59048-.178568 1.112824-.334823 1.567041l-4.28571 16.522078h-5.323665l-5.491065-22.517716h-2.34375v-3.645079z" fill="#dbe5ec" transform="matrix(.96592583 .25881905 -.25881905 .96592583 34.512051 -50.178002)"/><path d="m84 53.4156977h50.586914l23.413086 22.7543321v64.7456682h-74z" fill="#fff"/><g transform="translate(101.714286 88.273769)"><ellipse cx="18.957983" cy="19.288646" fill="#1991eb" rx="18.957983" ry="19.288646"/><path d="m19.1516014 13.2609439c.5474554 0 .9912557.4433555.9912557 1.0071017l-.0002437 3.8148983 3.7397344.0001614c.5522876 0 1.0000051.4422294 1.0000051 1.0085451v.3939906c0 .557004-.450016 1.008545-1.0000051 1.008545l-3.7397344-.0002421.0002437 3.8153019c0 .5562069-.4569112 1.0071017-.9912557 1.0071017h-.3872364c-.5474554 0-.9912558-.4433556-.9912558-1.0071017l-.0004958-3.8153019-3.7389948.0002421c-.5522876 0-1.0000052-.4422293-1.0000052-1.008545v-.3939906c0-.5570041.4500161-1.0085451 1.0000052-1.0085451l3.7389948-.0001614.0004958-3.8148983c0-.5562069.4569113-1.0071017.9912558-1.0071017z" fill="#fff"/></g></g><path d="m157.681082 69.5988274c.977832.994875 1.81596 2.345053 2.514408 4.0505699.698448 1.705517 1.047672 3.2688816 1.047672 4.6901418v61.3982469c0 1.421262-.488905 2.629318-1.466736 3.624201-.977832.994884-2.165172 1.492319-3.562079 1.492319h-70.4033124c-1.3968981 0-2.5842441-.497435-3.5620723-1.492319-.9778287-.994883-1.4667357-2.202939-1.4667357-3.624201v-85.2753408c0-1.4212601.488907-2.6293097 1.4667357-3.6241966.9778282-.9948869 2.1651742-1.4923184 3.5620723-1.4923184h46.9355394c1.396908 0 2.933472.3553151 4.609751 1.0659451 1.676268.7106301 3.003312 1.5633766 3.981132 2.5582516zm-23.258228-13.004492v20.0396987h19.696161c-.349224-1.030416-.733368-1.7587987-1.152432-2.185172l-16.396017-16.6819942c-.419064-.4263733-1.13496-.8172174-2.147712-1.1725325zm20.115225 81.4379426v-54.576212h-21.791505c-1.396895 0-2.584236-.4974315-3.562067-1.4923184-.977832-.9948869-1.466736-2.2029365-1.466736-3.6242085v-22.1715769h-40.2304663v81.8643158z" fill="#3d5372"/></g></svg>